<svg xmlns="http://www.w3.org/2000/svg" width="1922.017" height="1184.996" viewBox="0 0 1922.017 1184.996">
  <path id="Caminho_7" data-name="Caminho 7" d="M1556.454,839.533l-3.245-.284c-114.915-10.687-224.065-81.074-248.174-176.852-28.041-111.325,54.22-238.447-14.787-336.029-42.086-59.518-120.763-81.606-205.419-89.058-46.726-4.115-95.279-3.772-140.493-2.8-92.978,2-187.149.454-280.008-7.728C520.147,214.085,379.166,185.4,251,129.237,52.52,42.266-109.657-122.307-129.97-309.3l-13.362-29.424C-140.77-137.478,29.061,42.316,239.781,134.652c128.17,56.169,269.153,84.854,413.334,97.545,92.862,8.179,187.027,9.724,280.008,7.728,45.211-.973,93.764-1.315,140.49,2.8,84.655,7.453,163.332,29.545,205.415,89.058,69.008,97.586-13.252,224.707,14.788,336.035,24.121,95.78,133.259,166.16,248.187,176.847l3.232.286c81.236,6.746,162.571-12.7,233.45-48.049C1710.5,828.794,1633.434,845.925,1556.454,839.533Z" transform="translate(143.332 338.72)" fill="#00dede"/>
</svg>
