<svg xmlns="http://www.w3.org/2000/svg" width="263.449" height="78.26" viewBox="0 0 263.449 78.26">
  <path id="Caminho_8" data-name="Caminho 8" d="M225.813,487.122V504H167.225V490.67l28.165-26.338a27.548,27.548,0,0,0,5.483-6.557,12.411,12.411,0,0,0,1.4-5.59,6.984,6.984,0,0,0-2.472-5.7q-2.474-2.041-7.2-2.042a15.9,15.9,0,0,0-7.74,1.935,15.123,15.123,0,0,0-5.7,5.375l-15.8-8.815a30.921,30.921,0,0,1,12.363-11.5,39.817,39.817,0,0,1,18.812-4.192,38.394,38.394,0,0,1,15.158,2.8,23.015,23.015,0,0,1,10.32,8.062,19.893,19.893,0,0,1,3.762,12.04,26.047,26.047,0,0,1-2.687,11.61q-2.58,5.376-10.1,12.255l-14.19,13.115ZM270.5,505.505a32.186,32.186,0,0,1-17.2-4.623,31.474,31.474,0,0,1-11.825-13.437q-4.192-8.922-4.193-21.07t4.193-20.963A31.373,31.373,0,0,1,253.3,431.867a34.114,34.114,0,0,1,34.292,0,30.714,30.714,0,0,1,11.718,13.545q4.3,8.816,4.3,20.963t-4.3,21.07a30.8,30.8,0,0,1-11.718,13.437A31.989,31.989,0,0,1,270.5,505.505Zm0-17.415q5.375,0,8.492-5.16,3.225-5.268,3.225-16.555t-3.225-16.448q-3.117-5.267-8.492-5.267-5.482,0-8.708,5.267-3.117,5.16-3.117,16.448t3.117,16.555Q265.013,488.09,270.5,488.09Zm77.159-59.34V504H326.37V445.2H312.395V428.75Zm44.211-1.505q16.233,0,25.585,9.567t9.353,27.52q0,12.9-5.053,22.253a33.366,33.366,0,0,1-14.082,14.082,43.728,43.728,0,0,1-20.963,4.838A48.231,48.231,0,0,1,374.559,504a32.8,32.8,0,0,1-9.89-3.978l7.74-15.265q5.482,3.87,13.867,3.87,8.063,0,13.008-4.407,5.052-4.515,5.912-13.008-6.45,5.482-16.877,5.483a29.117,29.117,0,0,1-13.008-2.9,24.342,24.342,0,0,1-9.46-8.385,22.97,22.97,0,0,1-3.44-12.47,23.657,23.657,0,0,1,3.87-13.437,25.651,25.651,0,0,1,10.643-9.03A34.308,34.308,0,0,1,391.866,427.245Zm1.505,34.185a10.9,10.9,0,0,0,7.525-2.58,9.086,9.086,0,0,0,2.9-6.988,8.627,8.627,0,0,0-2.9-6.772,10.549,10.549,0,0,0-7.632-2.688,10.749,10.749,0,0,0-7.418,2.58,9.047,9.047,0,0,0-2.8,6.988,8.914,8.914,0,0,0,2.8,6.88A10.9,10.9,0,0,0,393.371,461.43Z" transform="translate(-163.355 -427.245)" fill="#fff"/>
</svg>
