<svg xmlns="http://www.w3.org/2000/svg" width="761.978" height="78.26" viewBox="0 0 761.978 78.26">
  <path id="Caminho_9" data-name="Caminho 9" d="M224.94,391.552V408H164.525V332.75h59.018V349.2H185.6v12.685h33.433v15.91H185.6v13.76ZM289.012,408l-15.588-23.328L258.052,408H233.757l27.412-38.055-26.23-37.2h23.973l15.05,21.715L288.8,332.75H311.8l-26.23,36.335L313.522,408Zm69.21-75.25a42.343,42.343,0,0,1,17.738,3.44,25.847,25.847,0,0,1,11.61,9.675,28.591,28.591,0,0,1,0,29.455,26.772,26.772,0,0,1-11.61,9.675,43.517,43.517,0,0,1-17.738,3.332H345.107V408H323.822V332.75Zm-1.29,38.807q6.558,0,9.89-2.8,3.333-2.9,3.333-8.17t-3.333-8.17q-3.331-2.9-9.89-2.9H345.107v22.037Zm110.891,19.995V408H407.408V332.75h59.017V349.2H428.478v12.685H461.91v15.91H428.478v13.76Zm50.081-3.547h-11.61V408H485.009V332.75h34.4a42.343,42.343,0,0,1,17.738,3.44,25.847,25.847,0,0,1,11.61,9.675,28.47,28.47,0,0,1,.215,29.025,25.576,25.576,0,0,1-10.858,9.46L554.347,408h-22.79Zm13.438-27.413q0-5.267-3.333-8.17t-9.89-2.9H506.294v22.037h11.825q6.558,0,9.89-2.8Q531.342,365.859,531.342,360.592ZM569.96,332.75h21.285V408H569.96Zm102.218,58.8V408H611.763V332.75H670.78V349.2H632.833v12.685h33.432v15.91H632.833v13.76Zm88.781-58.8V408H743.437l-33.218-40.1V408H689.364V332.75h17.523l33.217,40.1v-40.1Zm57.907,76.755a45.24,45.24,0,0,1-21.285-4.945,37.866,37.866,0,0,1-14.728-13.975,40.682,40.682,0,0,1,0-40.42A37.1,37.1,0,0,1,797.581,336.3a44.463,44.463,0,0,1,21.285-5.052,45.563,45.563,0,0,1,18.6,3.655,35.777,35.777,0,0,1,13.76,10.535L837.678,357.69q-7.309-8.816-17.737-8.815a22.2,22.2,0,0,0-10.965,2.687,19.021,19.021,0,0,0-7.418,7.633,23.4,23.4,0,0,0-2.58,11.18,24.039,24.039,0,0,0,2.58,11.287,19.2,19.2,0,0,0,7.418,7.525,22.19,22.19,0,0,0,10.965,2.688q10.427,0,17.737-8.815l13.545,12.255a35.777,35.777,0,0,1-13.76,10.535A45.563,45.563,0,0,1,818.866,409.505ZM926.5,391.552V408H866.088V332.75h59.018V349.2H887.158v12.685h33.433v15.91H887.158v13.76Z" transform="translate(-164.525 -331.245)" fill="#fff"/>
</svg>
